<?xml version="1.0" standalone="no"?>
<!DOCTYPE svg PUBLIC "-//W3C//DTD SVG 20010904//EN"
 "http://www.w3.org/TR/2001/REC-SVG-20010904/DTD/svg10.dtd">
<svg version="1.0" xmlns="http://www.w3.org/2000/svg"
 width="1024.000000pt" height="1024.000000pt" viewBox="0 0 1024.000000 1024.000000"
 preserveAspectRatio="xMidYMid meet">
<metadata>
Created by potrace 1.14, written by Peter Selinger 2001-2017
</metadata>
<g transform="translate(0.000000,1024.000000) scale(0.100000,-0.100000)"
fill="#000000" stroke="none">
<path d="M5611 7144 c13 -17 26 -30 28 -27 3 2 -8 16 -24 31 l-28 27 24 -31z"/>
<path d="M5650 7080 c6 -11 13 -20 16 -20 2 0 0 9 -6 20 -6 11 -13 20 -16 20
-2 0 0 -9 6 -20z"/>
<path d="M6305 7041 c-123 -31 -248 -108 -340 -209 -69 -77 -100 -133 -135
-247 -34 -107 -41 -148 -50 -280 -5 -71 -16 -175 -24 -230 -20 -128 -20 -344
-1 -463 18 -108 61 -250 116 -376 22 -49 39 -96 39 -103 0 -28 18 -2 29 42 20
78 135 326 192 415 127 195 276 311 499 386 43 15 69 34 126 94 40 41 85 93
100 115 40 59 91 172 109 240 30 118 12 277 -42 378 -33 59 -156 177 -216 206
-109 52 -269 65 -402 32z"/>
<path d="M5626 6445 c-9 -26 -7 -32 5 -12 6 10 9 21 6 23 -2 3 -7 -2 -11 -11z"/>
<path d="M4584 6140 c5 -256 27 -491 61 -637 20 -86 65 -403 65 -457 0 -40 21
-76 45 -76 5 0 17 -7 27 -17 11 -9 18 -11 18 -5 0 7 16 12 40 12 22 0 40 5 40
11 0 13 72 9 83 -6 13 -15 0 207 -17 301 -20 113 -75 333 -91 364 -17 34 -30
80 -17 61 8 -11 12 -10 23 8 l14 21 15 -20 c10 -14 22 -19 33 -15 15 6 15 10
1 36 -8 16 -12 29 -10 29 10 0 35 -58 28 -64 -4 -4 1 -12 11 -17 12 -7 16 -18
13 -32 -3 -12 -3 -16 0 -9 3 6 10 9 16 6 7 -4 7 0 0 12 -5 11 -24 50 -42 88
-40 87 -138 258 -201 352 -48 72 -118 202 -145 272 -13 33 -14 12 -10 -218z
m324 -435 c-3 -3 -9 2 -12 12 -6 14 -5 15 5 6 7 -7 10 -15 7 -18z"/>
<path d="M5572 6327 c-50 -94 -184 -202 -290 -233 -69 -20 -202 -15 -277 11
-61 21 -205 104 -205 118 0 6 -3 8 -6 5 -8 -9 32 -85 75 -143 119 -160 245
-412 342 -685 l34 -95 2 45 c12 212 88 452 264 824 49 104 88 190 86 192 -1 2
-13 -16 -25 -39z"/>
<path d="M5641 6207 c-157 -327 -219 -510 -256 -752 -51 -338 -16 -741 111
-1256 25 -104 50 -189 56 -189 5 0 6 -5 2 -11 -4 -7 2 -7 17 1 34 18 38 24 12
16 -14 -5 -23 -3 -23 3 0 6 5 11 11 11 6 0 8 9 4 20 -3 11 -2 20 4 20 5 0 12
-8 14 -17 3 -10 4 7 2 37 -2 32 0 47 4 36 7 -18 8 -18 14 5 14 51 -1 169 -53
404 -43 193 -83 585 -60 585 5 0 10 12 10 26 0 22 3 24 14 15 11 -10 19 -7 35
10 11 12 26 19 35 16 22 -9 86 14 86 32 0 11 3 10 15 -5 14 -18 14 -17 5 9 -7
20 -7 34 0 45 9 14 10 13 5 -5 -7 -24 9 -32 19 -10 3 6 3 0 0 -15 -5 -20 -1
-29 17 -38 20 -11 21 -10 14 6 -4 11 -20 60 -37 109 -90 274 -108 496 -63 794
14 91 24 166 22 167 -1 1 -17 -30 -36 -69z"/>
<path d="M3524 5841 c-34 -10 -81 -29 -106 -44 -91 -53 -181 -182 -207 -297
-15 -66 -13 -208 4 -274 34 -131 130 -267 256 -365 66 -51 191 -115 384 -196
213 -90 260 -113 350 -170 73 -46 172 -141 203 -194 25 -42 27 -44 30 -21 2
14 17 75 33 135 106 395 130 621 94 874 -18 123 -28 143 -132 242 -258 246
-657 382 -909 310z"/>
<path d="M4870 5686 c0 -9 -5 -16 -10 -16 -6 0 -4 -13 5 -30 9 -16 18 -30 21
-30 2 0 0 9 -6 19 -13 25 -14 53 -1 32 6 -9 11 -10 15 -2 4 6 2 11 -4 11 -6 0
-9 4 -5 9 3 5 1 12 -5 16 -5 3 -10 -1 -10 -9z"/>
<path d="M5760 5174 c0 -6 7 -19 16 -30 14 -18 14 -18 3 6 -14 31 -19 36 -19
24z"/>
<path d="M5992 5000 c0 -80 -3 -156 -6 -170 -3 -14 -2 -50 3 -80 l9 -55 1 65
c2 112 4 141 11 129 5 -7 9 -5 13 5 4 9 2 16 -4 16 -5 0 -9 6 -7 13 1 6 -1 22
-6 34 -4 13 -3 31 3 40 9 16 10 16 11 -4 0 -13 5 -23 11 -23 7 0 9 -9 5 -23
-3 -14 1 -31 10 -43 14 -18 15 -18 8 6 -3 14 -5 23 -3 20 2 -3 12 -14 21 -25
17 -20 17 -21 -15 -20 -39 0 -44 -17 -27 -115 12 -73 28 -91 56 -63 13 13 17
14 24 3 5 -8 11 7 17 41 11 66 6 79 -16 45 -10 -14 -21 -23 -24 -19 -4 3 -7
-8 -7 -25 0 -18 -4 -32 -8 -32 -5 0 -9 33 -8 73 0 69 1 73 23 73 20 0 21 -2 8
-16 -8 -9 -15 -22 -15 -28 0 -16 18 -24 26 -11 4 8 3 9 -4 5 -8 -4 -12 0 -12
10 0 13 3 15 11 7 6 -6 17 -9 25 -6 8 3 15 -5 19 -24 3 -15 11 -36 16 -46 5
-10 7 -22 4 -27 -4 -6 -4 -10 -1 -10 3 0 10 10 17 21 9 17 8 20 -2 14 -8 -6
-10 -4 -4 5 6 9 4 11 -5 5 -8 -5 -11 -4 -6 3 10 16 76 -25 70 -43 -3 -8 -11
-12 -19 -9 -15 6 -28 -23 -14 -32 5 -3 17 0 25 7 18 15 54 20 54 7 0 -5 5 -6
12 -2 8 5 9 2 5 -10 -4 -9 -3 -15 2 -11 31 18 18 -264 -18 -415 -24 -97 -61
-222 -70 -235 -4 -5 -27 -59 -51 -118 -41 -104 -135 -297 -149 -307 -4 -3 -13
-21 -21 -40 -7 -19 -24 -49 -37 -67 -13 -18 -26 -46 -29 -63 -4 -16 -12 -30
-20 -30 -22 0 -23 -14 -3 -39 12 -15 25 -21 36 -17 12 5 14 9 5 18 -20 20 -14
25 33 33 29 4 50 13 58 26 6 10 17 19 24 19 6 0 15 9 18 21 5 14 13 19 23 16
66 -21 63 -21 52 7 -13 36 -13 36 10 36 11 0 20 -5 20 -11 0 -5 -4 -7 -10 -4
-12 7 -12 -2 0 -30 8 -19 9 -19 9 2 1 12 5 24 10 27 5 3 7 -16 6 -42 -4 -60
-5 -61 -16 -37 -8 16 -8 15 -4 -8 4 -19 2 -26 -5 -22 -5 3 -10 -2 -10 -12 0
-11 -3 -23 -7 -29 -5 -5 2 2 15 16 31 34 92 122 92 134 0 12 -32 -21 -48 -49
-9 -15 -11 -16 -12 -4 0 18 53 72 62 63 10 -9 30 35 22 48 -4 7 -3 8 5 4 18
-11 120 212 180 394 50 154 108 392 131 544 12 83 8 95 -32 96 -27 0 -190 60
-236 87 -23 14 -68 45 -98 69 -31 24 -61 41 -67 37 -6 -3 -7 -2 -4 3 3 6 -16
35 -42 66 -57 67 -89 129 -113 218 l-17 65 1 -145z m273 -280 c3 -5 1 -10 -4
-10 -6 0 -11 5 -11 10 0 6 2 10 4 10 3 0 8 -4 11 -10z"/>
<path d="M5784 5093 c-1 -16 1 -22 3 -14 5 11 7 11 14 0 5 -8 9 -9 9 -3 0 5
-6 18 -12 27 -12 15 -13 14 -14 -10z"/>
<path d="M6196 4742 c-3 -4 4 -9 15 -9 23 -2 25 3 4 10 -8 4 -16 3 -19 -1z"/>
<path d="M6060 4670 c0 -5 5 -10 10 -10 6 0 10 5 10 10 0 6 -4 10 -10 10 -5 0
-10 -4 -10 -10z"/>
<path d="M5567 3984 c-4 -4 -7 -14 -7 -23 0 -11 3 -12 11 -4 6 6 10 16 7 23
-2 6 -7 8 -11 4z"/>
<path d="M6131 3441 c-8 -6 -9 -11 -3 -15 6 -3 14 -1 17 5 9 14 2 20 -14 10z"/>
<path d="M6117 3323 c4 -11 2 -14 -5 -9 -7 4 -12 2 -12 -3 0 -15 15 -14 29 3
9 10 8 15 -3 19 -11 4 -13 1 -9 -10z"/>
<path d="M6089 3273 c-13 -16 -12 -17 4 -4 9 7 17 15 17 17 0 8 -8 3 -21 -13z"/>
<path d="M6009 3183 c-13 -16 -12 -17 4 -4 16 13 21 21 13 21 -2 0 -10 -8 -17
-17z"/>
<path d="M3020 2515 c14 -8 30 -14 35 -14 6 0 -1 6 -15 14 -14 8 -29 14 -35
14 -5 0 1 -6 15 -14z"/>
<path d="M27 103 c-25 -4 -27 -8 -27 -54 0 -48 1 -49 30 -49 30 0 30 1 30 55
0 30 -1 54 -2 54 -2 -1 -15 -4 -31 -6z"/>
</g>
</svg>
